{
  "accessors": [
    {
      "bufferView": 0,
      "componentType": 5123,
      "count": 1056,
      "max": [
        259
      ],
      "min": [
        0
      ],
      "type": "SCALAR"
    },
    {
      "bufferView": 1,
      "componentType": 5126,
      "count": 260,
      "max": [
        1.0081076622009277,
        0.4685276746749878,
        0.12862741947174072
      ],
      "min": [
        -1.0081076622009277,
        0.37642592191696167,
        -0.1286274492740631
      ],
      "type": "VEC3"
    },
    {
      "bufferView": 2,
      "componentType": 5126,
      "count": 260,
      "max": [
        0.9985045790672302,
        0.9961546659469604,
        0.999481201171875
      ],
      "min": [
        -0.9985045790672302,
        -0.9969786405563354,
        -0.999481201171875
      ],
      "type": "VEC3"
    },
    {
      "bufferView": 3,
      "componentType": 5126,
      "count": 260,
      "max": [
        0.66009920835495,
        0.9992521405220032,
        0.9992688298225403,
        1
      ],
      "min": [
        -0.6534689664840698,
        -0.9994044303894043,
        -0.9993106126785278,
        1
      ],
      "type": "VEC4"
    },
    {
      "bufferView": 4,
      "componentType": 5126,
      "count": 260,
      "max": [
        0.9843935966491699,
        0.29101425409317017
      ],
      "min": [
        0.669613242149353,
        0.014770865440368652
      ],
      "type": "VEC2"
    },
    {
      "bufferView": 5,
      "componentType": 5121,
      "count": 864,
      "max": [
        208
      ],
      "min": [
        0
      ],
      "type": "SCALAR"
    },
    {
      "bufferView": 6,
      "componentType": 5126,
      "count": 209,
      "max": [
        0.0433211624622345,
        0.22510433197021484,
        -1.7779362201690674
      ],
      "min": [
        -0.0433211624622345,
        0.13846194744110107,
        -2.3438034057617188
      ],
      "type": "VEC3"
    },
    {
      "bufferView": 7,
      "componentType": 5126,
      "count": 209,
      "max": [
        0.999908447265625,
        0.999908447265625,
        -0.011200292967259884
      ],
      "min": [
        -0.999908447265625,
        -0.999908447265625,
        -0.999969482421875
      ],
      "type": "VEC3"
    },
    {
      "bufferView": 8,
      "componentType": 5126,
      "count": 209,
      "max": [
        0.9999850988388062,
        0.9999853372573853,
        0.8247851729393005,
        1
      ],
      "min": [
        -0.9999850988388062,
        -0.9999850988388062,
        -0.8093301057815552,
        1
      ],
      "type": "VEC4"
    },
    {
      "bufferView": 9,
      "componentType": 5126,
      "count": 209,
      "max": [
        0.6313826441764832,
        0.23888713121414185
      ],
      "min": [
        0.5006911158561707,
        0.010770261287689209
      ],
      "type": "VEC2"
    },
    {
      "bufferView": 10,
      "componentType": 5121,
      "count": 480,
      "max": [
        176
      ],
      "min": [
        0
      ],
      "type": "SCALAR"
    },
    {
      "bufferView": 11,
      "componentType": 5126,
      "count": 177,
      "max": [
        0.1714812070131302,
        0.17148110270500183,
        0.16199994087219238
      ],
      "min": [
        -0.17148123681545258,
        -0.17148134112358093,
        -2.384185791015625e-7
      ],
      "type": "VEC3"
    },
    {
      "bufferView": 12,
      "componentType": 5126,
      "count": 177,
      "max": [
        1,
        1,
        1
      ],
      "min": [
        -0.999969482421875,
        -1,
        0
      ],
      "type": "VEC3"
    },
    {
      "bufferView": 13,
      "componentType": 5126,
      "count": 177,
      "max": [
        0.8819218873977661,
        0.707108736038208,
        1,
        1
      ],
      "min": [
        -0.0000010529643077461515,
        -0.4713975787162781,
        -1,
        1
      ],
      "type": "VEC4"
    },
    {
      "bufferView": 14,
      "componentType": 5126,
      "count": 177,
      "max": [
        0.49210086464881897,
        0.8645358085632324
      ],
      "min": [
        0.27818959951400757,
        0.7039622068405151
      ],
      "type": "VEC2"
    },
    {
      "bufferView": 15,
      "componentType": 5123,
      "count": 2364,
      "max": [
        747
      ],
      "min": [
        0
      ],
      "type": "SCALAR"
    },
    {
      "bufferView": 16,
      "componentType": 5126,
      "count": 748,
      "max": [
        1.981810450553894,
        0,
        2.3245480060577393
      ],
      "min": [
        -1.981810450553894,
        -0.08000000566244125,
        -2.068514108657837
      ],
      "type": "VEC3"
    },
    {
      "bufferView": 17,
      "componentType": 5126,
      "count": 748,
      "max": [
        0.9551988244056702,
        0.9955137968063354,
        0.9238563179969788
      ],
      "min": [
        -0.9551988244056702,
        -0.9955137968063354,
        -0.9278542399406433
      ],
      "type": "VEC3"
    },
    {
      "bufferView": 18,
      "componentType": 5126,
      "count": 748,
      "max": [
        1,
        0.9571982622146606,
        0.9918909668922424,
        1
      ],
      "min": [
        -0.907461404800415,
        -0.9664493203163147,
        -0.9918909668922424,
        1
      ],
      "type": "VEC4"
    },
    {
      "bufferView": 19,
      "componentType": 5126,
      "count": 748,
      "max": [
        0.7705065011978149,
        0.9980706572532654
      ],
      "min": [
        0.0019293427467346191,
        0.4979372024536133
      ],
      "type": "VEC2"
    },
    {
      "bufferView": 20,
      "componentType": 5123,
      "count": 1056,
      "max": [
        259
      ],
      "min": [
        0
      ],
      "type": "SCALAR"
    },
    {
      "bufferView": 21,
      "componentType": 5126,
      "count": 260,
      "max": [
        1.0081076622009277,
        0.4685276746749878,
        0.12862741947174072
      ],
      "min": [
        -1.0081076622009277,
        0.37642592191696167,
        -0.1286274492740631
      ],
      "type": "VEC3"
    },
    {
      "bufferView": 22,
      "componentType": 5126,
      "count": 260,
      "max": [
        0.9985045790672302,
        0.9961546659469604,
        0.999481201171875
      ],
      "min": [
        -0.9985045790672302,
        -0.9969786405563354,
        -0.999481201171875
      ],
      "type": "VEC3"
    },
    {
      "bufferView": 23,
      "componentType": 5126,
      "count": 260,
      "max": [
        0.6534679532051086,
        0.9992523789405823,
        0.9992688298225403,
        1
      ],
      "min": [
        -0.6601001024246216,
        -0.9994046688079834,
        -0.9993105530738831,
        1
      ],
      "type": "VEC4"
    },
    {
      "bufferView": 24,
      "componentType": 5126,
      "count": 260,
      "max": [
        0.984725296497345,
        0.5804257392883301
      ],
      "min": [
        0.6071531772613525,
        0.30224019289016724
      ],
      "type": "VEC2"
    },
    {
      "bufferView": 25,
      "componentType": 5123,
      "count": 2688,
      "max": [
        556
      ],
      "min": [
        0
      ],
      "type": "SCALAR"
    },
    {
      "bufferView": 26,
      "componentType": 5126,
      "count": 557,
      "max": [
        0.7705379724502563,
        0.9486187100410461,
        2.1176037788391113
      ],
      "min": [
        -0.7705379724502563,
        -0.04945641756057739,
        -1.959601879119873
      ],
      "type": "VEC3"
    },
    {
      "bufferView": 27,
      "componentType": 5126,
      "count": 557,
      "max": [
        0.9910580515861511,
        1,
        0.999969482421875
      ],
      "min": [
        -0.9910580515861511,
        -1,
        -0.9980162978172302
      ],
      "type": "VEC3"
    },
    {
      "bufferView": 28,
      "componentType": 5126,
      "count": 557,
      "max": [
        1,
        0.8485876321792603,
        0.8144155740737915,
        1
      ],
      "min": [
        -1,
        -0.9999848008155823,
        -0.7008532881736755,
        1
      ],
      "type": "VEC4"
    },
    {
      "bufferView": 29,
      "componentType": 5126,
      "count": 557,
      "max": [
        0.5751475095748901,
        0.4367183446884155
      ],
      "min": [
        0.01575993373990059,
        0.015948712825775146
      ],
      "type": "VEC2"
    },
    {
      "bufferView": 30,
      "componentType": 5123,
      "count": 1728,
      "max": [
        522
      ],
      "min": [
        0
      ],
      "type": "SCALAR"
    },
    {
      "bufferView": 31,
      "componentType": 5126,
      "count": 523,
      "max": [
        0.24021437764167786,
        0.6104721426963806,
        0.24021434783935547
      ],
      "min": [
        -0.24021440744400024,
        -0.1561962366104126,
        -0.24021439254283905
      ],
      "type": "VEC3"
    },
    {
      "bufferView": 32,
      "componentType": 5126,
      "count": 523,
      "max": [
        0.9811395406723022,
        1,
        0.9811395406723022
      ],
      "min": [
        -0.9811395406723022,
        -0.999969482421875,
        -0.9811395406723022
      ],
      "type": "VEC3"
    },
    {
      "bufferView": 33,
      "componentType": 5126,
      "count": 523,
      "max": [
        0.9213945865631104,
        0.9806808233261108,
        0.9997786283493042,
        1
      ],
      "min": [
        -0.9997097253799438,
        -0.9396730065345764,
        -0.980790913105011,
        1
      ],
      "type": "VEC4"
    },
    {
      "bufferView": 34,
      "componentType": 5126,
      "count": 523,
      "max": [
        0.9943788051605225,
        0.985294334590435
      ],
      "min": [
        0.457405149936676,
        0.44357985258102417
      ],
      "type": "VEC2"
    },
    {
      "bufferView": 35,
      "componentType": 5126,
      "count": 5,
      "max": [
        0.49999999999999994
      ],
      "min": [
        0
      ],
      "type": "SCALAR"
    },
    {
      "bufferView": 36,
      "componentType": 5126,
      "count": 5,
      "max": [
        0,
        1,
        0,
        1
      ],
      "min": [
        0,
        -0.7071068286895752,
        0,
        4.371138828673793e-8
      ],
      "type": "VEC4"
    },
    {
      "bufferView": 37,
      "componentType": 5126,
      "count": 5,
      "max": [
        0.49999999999999994
      ],
      "min": [
        0
      ],
      "type": "SCALAR"
    },
    {
      "bufferView": 38,
      "componentType": 5126,
      "count": 5,
      "max": [
        0,
        1,
        0,
        1
      ],
      "min": [
        0,
        -0.7071068286895752,
        0,
        4.371138828673793e-8
      ],
      "type": "VEC4"
    },
    {
      "bufferView": 39,
      "componentType": 5126,
      "count": 5,
      "max": [
        0.49999999999999994
      ],
      "min": [
        0
      ],
      "type": "SCALAR"
    },
    {
      "bufferView": 40,
      "componentType": 5126,
      "count": 5,
      "max": [
        0,
        1,
        0,
        1
      ],
      "min": [
        0,
        -0.7071068286895752,
        0,
        -4.371138828673793e-8
      ],
      "type": "VEC4"
    },
    {
      "bufferView": 41,
      "componentType": 5126,
      "count": 5,
      "max": [
        0.49999999999999994
      ],
      "min": [
        0
      ],
      "type": "SCALAR"
    },
    {
      "bufferView": 42,
      "componentType": 5126,
      "count": 5,
      "max": [
        0,
        1,
        0,
        1
      ],
      "min": [
        0,
        -0.7071068286895752,
        0,
        -4.371138828673793e-8
      ],
      "type": "VEC4"
    }
  ],
  "animations": [
    {
      "name": "Fly",
      "channels": [
        {
          "sampler": 0,
          "target": {
            "node": 8,
            "path": "rotation"
          }
        },
        {
          "sampler": 1,
          "target": {
            "node": 9,
            "path": "rotation"
          }
        },
        {
          "sampler": 2,
          "target": {
            "node": 10,
            "path": "rotation"
          }
        },
        {
          "sampler": 3,
          "target": {
            "node": 11,
            "path": "rotation"
          }
        }
      ],
      "samplers": [
        {
          "input": 35,
          "interpolation": "LINEAR",
          "output": 36
        },
        {
          "input": 37,
          "interpolation": "LINEAR",
          "output": 38
        },
        {
          "input": 39,
          "interpolation": "LINEAR",
          "output": 40
        },
        {
          "input": 41,
          "interpolation": "LINEAR",
          "output": 42
        }
      ]
    }
  ],
  "asset": {
    "copyright": "Copyright 2017, 2018 Analytical Graphics, Inc., CC-BY 4.0 https://creativecommons.org/licenses/by/4.0/ - Mesh and textures by Ed Mackey.",
    "generator": "Khronos Blender glTF 2.0 exporter",
    "version": "2.0"
  },
  "bufferViews": [
    {
      "buffer": 0,
      "byteLength": 2112,
      "byteOffset": 0,
      "target": 34963
    },
    {
      "buffer": 0,
      "byteLength": 3120,
      "byteOffset": 2112,
      "target": 34962
    },
    {
      "buffer": 0,
      "byteLength": 3120,
      "byteOffset": 5232,
      "target": 34962
    },
    {
      "buffer": 0,
      "byteLength": 4160,
      "byteOffset": 8352,
      "target": 34962
    },
    {
      "buffer": 0,
      "byteLength": 2080,
      "byteOffset": 12512,
      "target": 34962
    },
    {
      "buffer": 0,
      "byteLength": 864,
      "byteOffset": 14592,
      "target": 34963
    },
    {
      "buffer": 0,
      "byteLength": 2508,
      "byteOffset": 15456,
      "target": 34962
    },
    {
      "buffer": 0,
      "byteLength": 2508,
      "byteOffset": 17964,
      "target": 34962
    },
    {
      "buffer": 0,
      "byteLength": 3344,
      "byteOffset": 20472,
      "target": 34962
    },
    {
      "buffer": 0,
      "byteLength": 1672,
      "byteOffset": 23816,
      "target": 34962
    },
    {
      "buffer": 0,
      "byteLength": 480,
      "byteOffset": 25488,
      "target": 34963
    },
    {
      "buffer": 0,
      "byteLength": 2124,
      "byteOffset": 25968,
      "target": 34962
    },
    {
      "buffer": 0,
      "byteLength": 2124,
      "byteOffset": 28092,
      "target": 34962
    },
    {
      "buffer": 0,
      "byteLength": 2832,
      "byteOffset": 30216,
      "target": 34962
    },
    {
      "buffer": 0,
      "byteLength": 1416,
      "byteOffset": 33048,
      "target": 34962
    },
    {
      "buffer": 0,
      "byteLength": 4728,
      "byteOffset": 34464,
      "target": 34963
    },
    {
      "buffer": 0,
      "byteLength": 8976,
      "byteOffset": 39192,
      "target": 34962
    },
    {
      "buffer": 0,
      "byteLength": 8976,
      "byteOffset": 48168,
      "target": 34962
    },
    {
      "buffer": 0,
      "byteLength": 11968,
      "byteOffset": 57144,
      "target": 34962
    },
    {
      "buffer": 0,
      "byteLength": 5984,
      "byteOffset": 69112,
      "target": 34962
    },
    {
      "buffer": 0,
      "byteLength": 2112,
      "byteOffset": 75096,
      "target": 34963
    },
    {
      "buffer": 0,
      "byteLength": 3120,
      "byteOffset": 77208,
      "target": 34962
    },
    {
      "buffer": 0,
      "byteLength": 3120,
      "byteOffset": 80328,
      "target": 34962
    },
    {
      "buffer": 0,
      "byteLength": 4160,
      "byteOffset": 83448,
      "target": 34962
    },
    {
      "buffer": 0,
      "byteLength": 2080,
      "byteOffset": 87608,
      "target": 34962
    },
    {
      "buffer": 0,
      "byteLength": 5376,
      "byteOffset": 89688,
      "target": 34963
    },
    {
      "buffer": 0,
      "byteLength": 6684,
      "byteOffset": 95064,
      "target": 34962
    },
    {
      "buffer": 0,
      "byteLength": 6684,
      "byteOffset": 101748,
      "target": 34962
    },
    {
      "buffer": 0,
      "byteLength": 8912,
      "byteOffset": 108432,
      "target": 34962
    },
    {
      "buffer": 0,
      "byteLength": 4456,
      "byteOffset": 117344,
      "target": 34962
    },
    {
      "buffer": 0,
      "byteLength": 3456,
      "byteOffset": 121800,
      "target": 34963
    },
    {
      "buffer": 0,
      "byteLength": 6276,
      "byteOffset": 125256,
      "target": 34962
    },
    {
      "buffer": 0,
      "byteLength": 6276,
      "byteOffset": 131532,
      "target": 34962
    },
    {
      "buffer": 0,
      "byteLength": 8368,
      "byteOffset": 137808,
      "target": 34962
    },
    {
      "buffer": 0,
      "byteLength": 4184,
      "byteOffset": 146176,
      "target": 34962
    },
    {
      "buffer": 0,
      "byteLength": 20,
      "byteOffset": 150360
    },
    {
      "buffer": 0,
      "byteLength": 80,
      "byteOffset": 150380
    },
    {
      "buffer": 0,
      "byteLength": 20,
      "byteOffset": 150460
    },
    {
      "buffer": 0,
      "byteLength": 80,
      "byteOffset": 150480
    },
    {
      "buffer": 0,
      "byteLength": 20,
      "byteOffset": 150560
    },
    {
      "buffer": 0,
      "byteLength": 80,
      "byteOffset": 150580
    },
    {
      "buffer": 0,
      "byteLength": 20,
      "byteOffset": 150660
    },
    {
      "buffer": 0,
      "byteLength": 80,
      "byteOffset": 150680
    }
  ],
  "buffers": [
    {
      "uri": "CesiumDrone_data.bin",
      "byteLength": 150760
    }
  ],
  "images": [
    {
      "name": "CesiumDrone2_BaseColor",
      "uri": "CesiumDrone_img0.jpg"
    },
    {
      "name": "CesiumDrone2_Normal",
      "uri": "CesiumDrone_img1.jpg"
    },
    {
      "name": "CesiumDrone2_ORM",
      "uri": "CesiumDrone_img2.jpg"
    }
  ],
  "materials": [
    {
      "name": "UnExplodedDrone",
      "normalTexture": {
        "index": 1
      },
      "pbrMetallicRoughness": {
        "baseColorTexture": {
          "index": 0
        },
        "metallicRoughnessTexture": {
          "index": 2
        }
      }
    }
  ],
  "meshes": [
    {
      "name": "PropCounterClockwise_low",
      "primitives": [
        {
          "attributes": {
            "NORMAL": 2,
            "POSITION": 1,
            "TANGENT": 3,
            "TEXCOORD_0": 4
          },
          "indices": 0,
          "material": 0
        }
      ]
    },
    {
      "name": "Antenna_low",
      "primitives": [
        {
          "attributes": {
            "NORMAL": 7,
            "POSITION": 6,
            "TANGENT": 8,
            "TEXCOORD_0": 9
          },
          "indices": 5,
          "material": 0
        }
      ]
    },
    {
      "name": "Lens_low",
      "primitives": [
        {
          "attributes": {
            "NORMAL": 12,
            "POSITION": 11,
            "TANGENT": 13,
            "TEXCOORD_0": 14
          },
          "indices": 10,
          "material": 0
        }
      ]
    },
    {
      "name": "Base_low",
      "primitives": [
        {
          "attributes": {
            "NORMAL": 17,
            "POSITION": 16,
            "TANGENT": 18,
            "TEXCOORD_0": 19
          },
          "indices": 15,
          "material": 0
        }
      ]
    },
    {
      "name": "PropClockwise_low",
      "primitives": [
        {
          "attributes": {
            "NORMAL": 22,
            "POSITION": 21,
            "TANGENT": 23,
            "TEXCOORD_0": 24
          },
          "indices": 20,
          "material": 0
        }
      ]
    },
    {
      "name": "Body_low",
      "primitives": [
        {
          "attributes": {
            "NORMAL": 27,
            "POSITION": 26,
            "TANGENT": 28,
            "TEXCOORD_0": 29
          },
          "indices": 25,
          "material": 0
        }
      ]
    },
    {
      "name": "Motor_low",
      "primitives": [
        {
          "attributes": {
            "NORMAL": 32,
            "POSITION": 31,
            "TANGENT": 33,
            "TEXCOORD_0": 34
          },
          "indices": 30,
          "material": 0
        }
      ]
    }
  ],
  "nodes": [
    {
      "mesh": 1,
      "name": "Antenna_low"
    },
    {
      "mesh": 3,
      "name": "Base_low"
    },
    {
      "mesh": 5,
      "name": "Body_low"
    },
    {
      "mesh": 2,
      "name": "Lens_low",
      "rotation": [
        -0.08715574443340302,
        0,
        0,
        0.9961947202682495
      ],
      "scale": [
        1,
        0.9999999403953552,
        0.9999999403953552
      ],
      "translation": [
        7.566995918750763e-8,
        0.3583137094974518,
        2.0034825801849365
      ]
    },
    {
      "mesh": 6,
      "name": "MotorBackLeft_low",
      "rotation": [
        0,
        1,
        0,
        -4.371138828673793e-8
      ],
      "translation": [
        1.7000000476837158,
        0,
        -1.777999997138977
      ]
    },
    {
      "mesh": 6,
      "name": "MotorBackRight_low",
      "translation": [
        -1.7000000476837158,
        0,
        -1.777999997138977
      ]
    },
    {
      "mesh": 6,
      "name": "MotorFrontLeft_low",
      "rotation": [
        0,
        1,
        0,
        -4.371138828673793e-8
      ],
      "translation": [
        1.7000000476837158,
        0,
        2.0324599742889404
      ]
    },
    {
      "mesh": 6,
      "name": "MotorFrontRight_low",
      "translation": [
        -1.7000000476837158,
        0,
        2.0324599742889404
      ]
    },
    {
      "mesh": 4,
      "name": "PropClockwiseBack_low",
      "rotation": [
        0,
        0.25881892442703247,
        0,
        0.9659258723258972
      ],
      "translation": [
        -1.7000000476837158,
        0,
        -1.777999997138977
      ]
    },
    {
      "mesh": 4,
      "name": "PropClockwiseFront_low",
      "rotation": [
        0,
        0.25881892442703247,
        0,
        0.9659258723258972
      ],
      "translation": [
        1.7000000476837158,
        0,
        2.0324559211730957
      ]
    },
    {
      "mesh": 0,
      "name": "PropCounterClockwiseBack_low",
      "rotation": [
        0,
        -0.25881892442703247,
        0,
        0.9659258723258972
      ],
      "translation": [
        1.7000000476837158,
        0,
        -1.777999997138977
      ]
    },
    {
      "mesh": 0,
      "name": "PropCounterClockwiseFront_low",
      "rotation": [
        0,
        -0.25881892442703247,
        0,
        0.9659258723258972
      ],
      "translation": [
        -1.7000000476837158,
        0,
        2.0324559211730957
      ]
    }
  ],
  "samplers": [
    {}
  ],
  "scene": 0,
  "scenes": [
    {
      "name": "Scene",
      "nodes": [
        10,
        8,
        4,
        6,
        5,
        0,
        1,
        3,
        9,
        11,
        7,
        2
      ]
    }
  ],
  "textures": [
    {
      "sampler": 0,
      "source": 0
    },
    {
      "sampler": 0,
      "source": 1
    },
    {
      "sampler": 0,
      "source": 2
    }
  ]
}