{
  "accessors": [
    {
      "name": "A340fuselage_1_positions",
      "componentType": 5126,
      "count": 12704,
      "min": [
        -28.258399963378906,
        -6.918099880218506,
        -31.952800750732422
      ],
      "max": [
        28.258399963378906,
        8.264300346374512,
        31.952800750732422
      ],
      "type": "VEC3",
      "bufferView": 0,
      "byteOffset": 0
    },
    {
      "name": "A340fuselage_1_normals",
      "componentType": 5126,
      "count": 12704,
      "min": [
        -1,
        -1,
        -1
      ],
      "max": [
        1,
        1,
        1
      ],
      "type": "VEC3",
      "bufferView": 0,
      "byteOffset": 152448
    },
    {
      "name": "A340fuselage_1_texcoords",
      "componentType": 5126,
      "count": 12704,
      "min": [
        -891.5073852539062,
        -2174.3623046875
      ],
      "max": [
        892.5073852539062,
        2175.3623046875
      ],
      "type": "VEC2",
      "bufferView": 1,
      "byteOffset": 0
    },
    {
      "name": "A340fuselage_1_0_indices",
      "componentType": 5123,
      "count": 6651,
      "min": [
        0
      ],
      "max": [
        7080
      ],
      "type": "SCALAR",
      "bufferView": 2,
      "byteOffset": 0
    },
    {
      "name": "A340fuselage_1_1_indices",
      "componentType": 5123,
      "count": 1374,
      "min": [
        0
      ],
      "max": [
        7083
      ],
      "type": "SCALAR",
      "bufferView": 2,
      "byteOffset": 13304
    },
    {
      "name": "A340fuselage_1_2_indices",
      "componentType": 5123,
      "count": 858,
      "min": [
        1551
      ],
      "max": [
        2074
      ],
      "type": "SCALAR",
      "bufferView": 2,
      "byteOffset": 16052
    },
    {
      "name": "A340fuselage_1_3_indices",
      "componentType": 5123,
      "count": 138,
      "min": [
        1619
      ],
      "max": [
        2030
      ],
      "type": "SCALAR",
      "bufferView": 2,
      "byteOffset": 17768
    },
    {
      "name": "A340fuselage_1_4_indices",
      "componentType": 5123,
      "count": 2202,
      "min": [
        2075
      ],
      "max": [
        3118
      ],
      "type": "SCALAR",
      "bufferView": 2,
      "byteOffset": 18044
    },
    {
      "name": "A340fuselage_1_5_indices",
      "componentType": 5123,
      "count": 1560,
      "min": [
        2413
      ],
      "max": [
        2848
      ],
      "type": "SCALAR",
      "bufferView": 2,
      "byteOffset": 22448
    },
    {
      "name": "A340fuselage_1_6_indices",
      "componentType": 5123,
      "count": 17778,
      "min": [
        3119
      ],
      "max": [
        6979
      ],
      "type": "SCALAR",
      "bufferView": 2,
      "byteOffset": 25568
    },
    {
      "name": "A340fuselage_1_7_indices",
      "componentType": 5123,
      "count": 15768,
      "min": [
        7084
      ],
      "max": [
        12703
      ],
      "type": "SCALAR",
      "bufferView": 2,
      "byteOffset": 61124
    }
  ],
  "asset": {
    "generator": "obj2gltf",
    "version": "2.0"
  },
  "buffers": [
    {
      "name": "fj",
      "byteLength": 569100,
      "uri": "data:application/octet-stream;base64,"
    }
  ],
  "bufferViews": [
    {
      "name": "bufferView_0",
      "buffer": 0,
      "byteLength": 304896,
      "byteOffset": 0,
      "byteStride": 12,
      "target": 34962
    },
    {
      "name": "bufferView_1",
      "buffer": 0,
      "byteLength": 101632,
      "byteOffset": 304896,
      "byteStride": 8,
      "target": 34962
    },
    {
      "name": "bufferView_2",
      "buffer": 0,
      "byteLength": 92660,
      "byteOffset": 406528,
      "target": 34963
    },
    {
      "buffer": 0,
      "byteOffset": 499188,
      "byteLength": 33352
    },
    {
      "buffer": 0,
      "byteOffset": 532540,
      "byteLength": 33355
    },
    {
      "buffer": 0,
      "byteOffset": 565895,
      "byteLength": 381
    },
    {
      "buffer": 0,
      "byteOffset": 566276,
      "byteLength": 385
    },
    {
      "buffer": 0,
      "byteOffset": 566661,
      "byteLength": 379
    },
    {
      "buffer": 0,
      "byteOffset": 567040,
      "byteLength": 2057
    }
  ],
  "images": [
    {
      "name": "A340-300-AIRFRANCE",
      "mimeType": "image/jpeg",
      "bufferView": 3
    },
    {
      "name": "A340-300-AIRFRANCE-M",
      "mimeType": "image/jpeg",
      "bufferView": 4
    },
    {
      "name": "A321-motor-AirFrance5",
      "mimeType": "image/jpeg",
      "bufferView": 5
    },
    {
      "name": "A321-motor-AirFrance3",
      "mimeType": "image/jpeg",
      "bufferView": 6
    },
    {
      "name": "A321-motor-AirFrance2",
      "mimeType": "image/jpeg",
      "bufferView": 7
    },
    {
      "name": "A321-motor-AirFrance",
      "mimeType": "image/jpeg",
      "bufferView": 8
    }
  ],
  "materials": [
    {
      "name": "A340__AIRFRANCE",
      "pbrMetallicRoughness": {
        "baseColorTexture": {
          "index": 0
        },
        "baseColorFactor": [
          1,
          1,
          1,
          1
        ],
        "metallicFactor": 0,
        "roughnessFactor": 0.931125
      },
      "emissiveFactor": [
        0,
        0,
        0
      ],
      "alphaMode": "OPAQUE",
      "doubleSided": false
    },
    {
      "name": "A340__AIRFRANCE_M",
      "pbrMetallicRoughness": {
        "baseColorTexture": {
          "index": 1
        },
        "baseColorFactor": [
          1,
          1,
          1,
          1
        ],
        "metallicFactor": 0,
        "roughnessFactor": 0.931125
      },
      "emissiveFactor": [
        0,
        0,
        0
      ],
      "alphaMode": "OPAQUE",
      "doubleSided": false
    },
    {
      "name": "Material__1622",
      "pbrMetallicRoughness": {
        "baseColorTexture": {
          "index": 2
        },
        "baseColorFactor": [
          1,
          1,
          1,
          1
        ],
        "metallicFactor": 0,
        "roughnessFactor": 0.99
      },
      "emissiveFactor": [
        0,
        0,
        0
      ],
      "alphaMode": "OPAQUE",
      "doubleSided": false
    },
    {
      "name": "Material__1610",
      "pbrMetallicRoughness": {
        "baseColorTexture": {
          "index": 3
        },
        "baseColorFactor": [
          1,
          1,
          1,
          1
        ],
        "metallicFactor": 0,
        "roughnessFactor": 0.99
      },
      "emissiveFactor": [
        0,
        0,
        0
      ],
      "alphaMode": "OPAQUE",
      "doubleSided": false
    },
    {
      "name": "Material__1598",
      "pbrMetallicRoughness": {
        "baseColorTexture": {
          "index": 4
        },
        "baseColorFactor": [
          1,
          1,
          1,
          1
        ],
        "metallicFactor": 0,
        "roughnessFactor": 0.99
      },
      "emissiveFactor": [
        0,
        0,
        0
      ],
      "alphaMode": "OPAQUE",
      "doubleSided": false
    },
    {
      "name": "Material__1562",
      "pbrMetallicRoughness": {
        "baseColorTexture": {
          "index": 4
        },
        "baseColorFactor": [
          1,
          1,
          1,
          1
        ],
        "metallicFactor": 0,
        "roughnessFactor": 0.99
      },
      "emissiveFactor": [
        0,
        0,
        0
      ],
      "alphaMode": "OPAQUE",
      "doubleSided": false
    },
    {
      "name": "Material__1574",
      "pbrMetallicRoughness": {
        "baseColorTexture": {
          "index": 4
        },
        "baseColorFactor": [
          1,
          1,
          1,
          1
        ],
        "metallicFactor": 0,
        "roughnessFactor": 0.99
      },
      "emissiveFactor": [
        0,
        0,
        0
      ],
      "alphaMode": "OPAQUE",
      "doubleSided": false
    },
    {
      "name": "A320motor_AirFrance",
      "pbrMetallicRoughness": {
        "baseColorTexture": {
          "index": 5
        },
        "baseColorFactor": [
          1,
          1,
          1,
          1
        ],
        "metallicFactor": 0,
        "roughnessFactor": 0.931125
      },
      "emissiveFactor": [
        0,
        0,
        0
      ],
      "alphaMode": "OPAQUE",
      "doubleSided": false
    }
  ],
  "meshes": [
    {
      "name": "A340fuselage_1",
      "primitives": [
        {
          "attributes": {
            "POSITION": 0,
            "NORMAL": 1,
            "TEXCOORD_0": 2
          },
          "indices": 3,
          "material": 0,
          "mode": 4
        },
        {
          "attributes": {
            "POSITION": 0,
            "NORMAL": 1,
            "TEXCOORD_0": 2
          },
          "indices": 4,
          "material": 1,
          "mode": 4
        },
        {
          "attributes": {
            "POSITION": 0,
            "NORMAL": 1,
            "TEXCOORD_0": 2
          },
          "indices": 5,
          "material": 2,
          "mode": 4
        },
        {
          "attributes": {
            "POSITION": 0,
            "NORMAL": 1,
            "TEXCOORD_0": 2
          },
          "indices": 6,
          "material": 3,
          "mode": 4
        },
        {
          "attributes": {
            "POSITION": 0,
            "NORMAL": 1,
            "TEXCOORD_0": 2
          },
          "indices": 7,
          "material": 4,
          "mode": 4
        },
        {
          "attributes": {
            "POSITION": 0,
            "NORMAL": 1,
            "TEXCOORD_0": 2
          },
          "indices": 8,
          "material": 5,
          "mode": 4
        },
        {
          "attributes": {
            "POSITION": 0,
            "NORMAL": 1,
            "TEXCOORD_0": 2
          },
          "indices": 9,
          "material": 6,
          "mode": 4
        },
        {
          "attributes": {
            "POSITION": 0,
            "NORMAL": 1,
            "TEXCOORD_0": 2
          },
          "indices": 10,
          "material": 7,
          "mode": 4
        }
      ]
    }
  ],
  "nodes": [
    {
      "name": "A340fuselage",
      "mesh": 0
    }
  ],
  "samplers": [
    {
      "magFilter": 9729,
      "minFilter": 9986,
      "wrapS": 10497,
      "wrapT": 10497
    }
  ],
  "scene": 0,
  "scenes": [
    {
      "nodes": [
        0
      ]
    }
  ],
  "textures": [
    {
      "name": "A340-300-AIRFRANCE",
      "sampler": 0,
      "source": 0
    },
    {
      "name": "A340-300-AIRFRANCE-M",
      "sampler": 0,
      "source": 1
    },
    {
      "name": "A321-motor-AirFrance5",
      "sampler": 0,
      "source": 2
    },
    {
      "name": "A321-motor-AirFrance3",
      "sampler": 0,
      "source": 3
    },
    {
      "name": "A321-motor-AirFrance2",
      "sampler": 0,
      "source": 4
    },
    {
      "name": "A321-motor-AirFrance",
      "sampler": 0,
      "source": 5
    }
  ]
}
